<?xml version="1.0" encoding="UTF-8" standalone="no"?>
<!-- Created with Inkscape (http://www.inkscape.org/) -->

<svg
   width="250mm"
   height="250mm"
   viewBox="0 0 250 250"
   version="1.1"
   id="svg1585"
   inkscape:version="1.2.2 (b0a8486541, 2022-12-01)"
   sodipodi:docname="Mandala.svg"
   inkscape:export-filename="Mandala.png"
   inkscape:export-xdpi="96"
   inkscape:export-ydpi="96"
   xmlns:inkscape="http://www.inkscape.org/namespaces/inkscape"
   xmlns:sodipodi="http://sodipodi.sourceforge.net/DTD/sodipodi-0.dtd"
   xmlns:xlink="http://www.w3.org/1999/xlink"
   xmlns="http://www.w3.org/2000/svg"
   xmlns:svg="http://www.w3.org/2000/svg">
  <sodipodi:namedview
     id="namedview1587"
     pagecolor="#1c1c1c"
     bordercolor="#000000"
     borderopacity="0.25"
     inkscape:showpageshadow="2"
     inkscape:pageopacity="0"
     inkscape:pagecheckerboard="0"
     inkscape:deskcolor="#131313"
     inkscape:document-units="mm"
     showgrid="false"
     inkscape:zoom="0.69753788"
     inkscape:cx="375.60684"
     inkscape:cy="476.67662"
     inkscape:window-width="1920"
     inkscape:window-height="1001"
     inkscape:window-x="0"
     inkscape:window-y="0"
     inkscape:window-maximized="1"
     inkscape:current-layer="layer1" />
  <defs
     id="defs1582">
    <linearGradient
       inkscape:collect="always"
       id="linearGradient2439">
      <stop
         style="stop-color:#2b390e;stop-opacity:1;"
         offset="0.33825099"
         id="stop2435" />
      <stop
         style="stop-color:#aea07f;stop-opacity:1;"
         offset="0.85424083"
         id="stop2443" />
      <stop
         style="stop-color:#c97281;stop-opacity:1;"
         offset="1"
         id="stop2437" />
    </linearGradient>
    <inkscape:path-effect
       effect="copy_rotate"
       starting_point="204.46201,125"
       origin="125,125"
       id="path-effect2338"
       is_visible="true"
       lpeversion="1.2"
       lpesatellites=""
       method="normal"
       num_copies="6"
       starting_angle="0"
       rotation_angle="60"
       gap="-0.01"
       copies_to_360="true"
       mirror_copies="false"
       split_items="false"
       link_styles="false" />
    <inkscape:path-effect
       effect="mirror_symmetry"
       start_point="125,39.310479"
       end_point="125,125"
       center_point="125,82.155239"
       id="path-effect2336"
       is_visible="true"
       lpeversion="1.2"
       lpesatellites=""
       mode="free"
       discard_orig_path="false"
       fuse_paths="true"
       oposite_fuse="false"
       split_items="false"
       split_open="false"
       link_styles="false" />
    <inkscape:path-effect
       effect="copy_rotate"
       starting_point="221.47189,124.02019"
       origin="111.21701,124.02019"
       id="path-effect2312"
       is_visible="true"
       lpeversion="1.2"
       lpesatellites=""
       method="normal"
       num_copies="5"
       starting_angle="0"
       rotation_angle="60"
       gap="-0.01"
       copies_to_360="true"
       mirror_copies="false"
       split_items="false"
       link_styles="false" />
    <inkscape:path-effect
       effect="mirror_symmetry"
       start_point="116.86032,9.752397"
       end_point="116.86032,124.34108"
       center_point="116.86032,67.046739"
       id="path-effect2310"
       is_visible="true"
       lpeversion="1.2"
       lpesatellites=""
       mode="free"
       discard_orig_path="false"
       fuse_paths="true"
       oposite_fuse="false"
       split_items="false"
       split_open="false"
       link_styles="false" />
    <inkscape:path-effect
       effect="copy_rotate"
       starting_point="217.19727,184.78152"
       origin="125,184.78152"
       id="path-effect2304"
       is_visible="true"
       lpeversion="1.2"
       lpesatellites=""
       method="normal"
       num_copies="6"
       starting_angle="0"
       rotation_angle="60"
       gap="-0.01"
       copies_to_360="true"
       mirror_copies="false"
       split_items="false"
       link_styles="false" />
    <inkscape:path-effect
       effect="mirror_symmetry"
       start_point="125,52.552262"
       end_point="125,167.60331"
       center_point="125,110.07779"
       id="path-effect2302"
       is_visible="true"
       lpeversion="1.2"
       lpesatellites=""
       mode="free"
       discard_orig_path="false"
       fuse_paths="true"
       oposite_fuse="false"
       split_items="false"
       split_open="false"
       link_styles="false" />
    <inkscape:path-effect
       effect="copy_rotate"
       starting_point="266.61403,124.42339"
       origin="123.8877,124.42339"
       id="path-effect2235"
       is_visible="true"
       lpeversion="1.2"
       lpesatellites=""
       method="normal"
       num_copies="6"
       starting_angle="0"
       rotation_angle="60"
       gap="-0.01"
       copies_to_360="true"
       mirror_copies="false"
       split_items="false"
       link_styles="false" />
    <inkscape:path-effect
       effect="mirror_symmetry"
       start_point="124.34976,8.1907326"
       end_point="124.34976,125.66677"
       center_point="124.34976,66.928751"
       id="path-effect2233"
       is_visible="true"
       lpeversion="1.2"
       lpesatellites=""
       mode="free"
       discard_orig_path="false"
       fuse_paths="true"
       oposite_fuse="false"
       split_items="false"
       split_open="false"
       link_styles="false" />
    <inkscape:path-effect
       effect="copy_rotate"
       starting_point="236.89952,125"
       origin="127.68831,125"
       id="path-effect2228"
       is_visible="true"
       lpeversion="1.2"
       lpesatellites=""
       method="normal"
       num_copies="6"
       starting_angle="0"
       rotation_angle="60"
       gap="-0.01"
       copies_to_360="true"
       mirror_copies="false"
       split_items="false"
       link_styles="false" />
    <inkscape:path-effect
       effect="mirror_symmetry"
       start_point="125,25.616783"
       end_point="125,131.01024"
       center_point="125,78.313512"
       id="path-effect2226"
       is_visible="true"
       lpeversion="1.2"
       lpesatellites=""
       mode="free"
       discard_orig_path="false"
       fuse_paths="true"
       oposite_fuse="false"
       split_items="false"
       split_open="false"
       link_styles="false" />
    <inkscape:path-effect
       effect="copy_rotate"
       starting_point="218.17192,222.54507"
       origin="125.35107,222.54507"
       id="path-effect1676"
       is_visible="true"
       lpeversion="1.2"
       lpesatellites=""
       method="normal"
       num_copies="12"
       starting_angle="0"
       rotation_angle="30"
       gap="-0.01"
       copies_to_360="true"
       mirror_copies="false"
       split_items="false"
       link_styles="false" />
    <inkscape:path-effect
       effect="mirror_symmetry"
       start_point="125,34.247576"
       end_point="125,198.4934"
       center_point="125,116.37049"
       id="path-effect1674"
       is_visible="true"
       lpeversion="1.2"
       lpesatellites=""
       mode="free"
       discard_orig_path="false"
       fuse_paths="true"
       oposite_fuse="false"
       split_items="false"
       split_open="false"
       link_styles="false" />
    <inkscape:path-effect
       effect="copy_rotate"
       starting_point="182.25894,160.24308"
       origin="145.63607,160.24308"
       id="path-effect1656"
       is_visible="true"
       lpeversion="1.2"
       lpesatellites=""
       method="normal"
       num_copies="12"
       starting_angle="0"
       rotation_angle="30"
       gap="-0.01"
       copies_to_360="true"
       mirror_copies="false"
       split_items="false"
       link_styles="false" />
    <inkscape:path-effect
       effect="mirror_symmetry"
       start_point="125,24.142511"
       end_point="125,224.0035"
       center_point="125,124.07301"
       id="path-effect1654"
       is_visible="true"
       lpeversion="1.2"
       lpesatellites=""
       mode="free"
       discard_orig_path="false"
       fuse_paths="true"
       oposite_fuse="false"
       split_items="false"
       split_open="false"
       link_styles="false" />
    <radialGradient
       inkscape:collect="always"
       xlink:href="#linearGradient2439"
       id="radialGradient2441"
       cx="127.58289"
       cy="130.34054"
       fx="127.58289"
       fy="130.34054"
       r="116.37501"
       gradientTransform="matrix(1,0,0,1.0362695,0,-4.7273856)"
       gradientUnits="userSpaceOnUse" />
  </defs>
  <g
     inkscape:label="Layer 1"
     inkscape:groupmode="layer"
     id="layer1"
     style="display:inline"
     transform="matrix(1.0481879,0,0,1.0403704,-11.751932,-10.134282)">
    <path
       id="path2334-3"
       style="display:inline;fill:#3e541a;fill-opacity:1;stroke:#615d00;stroke-width:1.834;stroke-dasharray:none;stroke-opacity:1"
       d="m 127.58318,27.303935 c -5.84735,4.298266 -11.71526,8.518289 -16.85326,15.523541 -4.4985,-3.894963 -10.217,-8.066686 -17.813215,-12.663793 -2.850825,5.380752 -6.048802,10.728406 -8.322021,16.446245 -1.780499,-0.177438 -3.641082,-0.323133 -5.601332,-0.429752 -0.887657,1.750672 -1.692248,3.43559 -2.428737,5.066024 -6.088502,-0.8903 -12.318772,-0.794112 -18.404141,-1.015607 0.183102,8.876802 0.935825,15.914901 2.059651,21.758111 -8.635341,0.947074 -15.223457,3.918965 -21.869344,6.833696 0.798722,7.212959 1.519148,14.404537 5.016728,22.35661 -5.62229,1.94833 -12.094418,4.8151 -19.873522,9.09494 3.234525,5.15936 6.266819,10.60297 10.082118,15.43065 -1.043877,1.45318 -2.100788,2.99199 -3.173215,4.63625 1.072337,1.64414 2.129425,3.18257 3.173215,4.63564 -3.815299,4.82768 -6.847593,10.27191 -10.082118,15.43127 7.779104,4.27985 14.251232,7.14598 19.873522,9.09433 -3.497735,7.95222 -4.217993,15.14353 -5.016728,22.35661 6.645884,2.91472 13.23401,5.88661 21.869344,6.83369 -1.12386,5.84326 -1.876549,12.88179 -2.059651,21.75873 6.085352,-0.22148 12.315655,-0.12533 18.404141,-1.01559 0.736489,1.63043 1.54108,3.31471 2.428737,5.06539 1.960034,-0.10666 3.8204,-0.25235 5.600698,-0.42975 2.273236,5.71805 5.471747,11.06595 8.322655,16.44687 7.596115,-4.59705 13.314745,-8.76887 17.813215,-12.66379 5.13791,7.00501 11.00603,11.22473 16.85326,15.5229 5.84717,-4.29812 11.71475,-8.51802 16.85263,-15.5229 4.49849,3.89492 10.21711,8.06674 17.81324,12.66379 2.85089,-5.38089 6.0494,-10.72887 8.32265,-16.44687 1.7803,0.1774 3.64128,0.32314 5.60132,0.42975 0.88769,-1.75074 1.69223,-3.43491 2.42873,-5.06539 6.08842,0.89024 12.31888,0.79411 18.40415,1.01559 -0.18311,-8.87694 -0.93643,-15.91547 -2.06027,-21.75873 8.63539,-0.94706 15.22341,-3.91895 21.86933,-6.83369 -0.79872,-7.21295 -1.51917,-14.40394 -5.01672,-22.35598 5.62246,-1.94835 12.09407,-4.81492 19.87352,-9.09496 -3.23453,-5.15936 -6.26621,-10.60359 -10.08149,-15.43127 1.04378,-1.45306 2.10025,-2.99152 3.17258,-4.63564 -1.07244,-1.64424 -2.12872,-3.18309 -3.17258,-4.63625 3.81528,-4.82768 6.84696,-10.27129 10.08149,-15.43065 -7.77937,-4.27999 -14.25111,-7.14661 -19.87352,-9.09494 3.4976,-7.95209 4.218,-15.143634 5.01672,-22.35661 -6.64594,-2.914748 -13.23394,-5.886638 -21.86933,-6.833696 1.12382,-5.84321 1.87716,-12.881309 2.06027,-21.758111 -6.08551,0.2215 -12.31616,0.125251 -18.40478,1.015607 -0.73649,-1.630426 -1.54045,-3.315364 -2.4281,-5.066024 -1.96002,0.106601 -3.82102,0.252342 -5.60132,0.429752 -2.27322,-5.71787 -5.47183,-11.065468 -8.32265,-16.446245 -7.59603,4.597001 -13.31477,8.768273 -17.81324,12.66316 -5.13786,-7.004869 -11.00546,-11.224773 -16.85263,-15.522908 z" />
    <path
       id="path2300"
       style="display:inline;fill:url(#radialGradient2441);fill-opacity:1;stroke:#9e5d51;stroke-width:1.342;stroke-dasharray:none;stroke-opacity:1"
       d="m 127.58289,10.764967 c -5.59551,6.408549 -8.94922,14.278861 -10.78355,22.725351 -1.21006,-2.227135 -2.64157,-4.307887 -4.33823,-6.195375 -5.19343,5.574478 -8.50751,11.655001 -10.44199,17.998796 C 88.533253,24.602131 75.610591,24.864856 75.610591,24.864856 c 0,0 2.780887,14.170813 10.558405,32.203384 C 74.769723,41.171758 64.14634,31.62612 64.14634,31.62612 c 0,0 -6.68416,11.300348 4.115027,33.575982 -6.345464,-1.46052 -13.157208,-1.568712 -20.479882,0.238322 0.751917,2.444788 1.799931,4.75165 3.083144,6.935771 -8.078137,-2.600537 -16.427459,-3.569042 -24.658409,-1.823311 2.635446,8.15429 7.631042,15.056059 13.874865,20.902031 -2.493207,-0.04309 -4.97331,0.183204 -7.421864,0.740394 2.129313,7.381392 5.627446,13.352961 10.038375,18.236111 -24.285009,1.58443 -30.523547,13.14811 -30.523547,13.14811 0,0 13.472002,4.63008 32.700363,6.76126 -19.22836,2.13118 -32.700363,6.76127 -32.700363,6.76127 0,0 6.238545,11.56318 30.523547,13.14759 -4.410929,4.88317 -7.909064,10.85523 -10.038375,18.23662 2.448552,0.5572 4.928659,0.78349 7.421864,0.7404 -6.243776,5.84595 -11.239434,12.74729 -13.874865,20.90153 8.2308,1.74569 16.579927,0.77762 24.657928,-1.82281 -1.283094,2.18399 -2.330795,4.49115 -3.082663,6.93577 7.322674,1.80703 14.134418,1.69834 20.479882,0.23783 -10.799279,22.27571 -4.115027,33.57598 -4.115027,33.57598 0,0 10.623759,-9.54541 22.023136,-25.44213 -7.777651,18.03277 -10.558885,32.20339 -10.558885,32.20339 0,0 12.922715,0.26299 26.408529,-20.42838 1.93448,6.3438 5.24856,12.42381 10.44199,17.9983 1.69661,-1.88742 3.12819,-3.96784 4.33823,-6.19488 1.83434,8.4464 5.18809,16.31636 10.78355,22.72485 5.59556,-6.40862 8.94876,-14.27876 10.78306,-22.72535 1.21011,2.22724 2.64199,4.30781 4.33873,6.19538 5.19342,-5.57449 8.50749,-11.6545 10.44198,-17.9983 13.48578,20.69123 26.40853,20.42838 26.40853,20.42838 0,0 -2.78142,-14.17117 -10.55937,-32.20439 11.39961,15.89725 22.02362,25.44313 22.02362,25.44313 0,0 6.68425,-11.30027 -4.11504,-33.57598 6.34547,1.46051 13.15722,1.5692 20.47989,-0.23783 -0.75188,-2.44467 -1.80002,-4.75175 -3.08315,-6.93577 8.07814,2.60053 16.42746,3.56854 24.6584,1.82281 -2.63541,-8.15419 -7.63113,-15.05559 -13.87485,-20.90153 2.49321,0.0431 4.97283,-0.1832 7.42137,-0.7404 -2.1293,-7.38138 -5.62697,-13.35345 -10.03789,-18.23662 24.285,-1.58441 30.52355,-13.14759 30.52355,-13.14759 0,0 -13.47218,-4.63008 -32.70036,-6.76127 19.22818,-2.13119 32.70036,-6.76126 32.70036,-6.76126 0,0 -6.23853,-11.56368 -30.52355,-13.14811 4.41092,-4.88315 7.90859,-10.854731 10.03789,-18.236111 -2.44855,-0.55719 -4.92816,-0.783484 -7.42137,-0.740394 6.24377,-5.845946 11.23943,-12.747796 13.87485,-20.902031 -8.23094,-1.745731 -16.58026,-0.777226 -24.6584,1.823311 1.28318,-2.184094 2.33124,-4.49102 3.08315,-6.935771 -7.32249,-1.806989 -14.13409,-1.698734 -20.47941,-0.238322 10.79905,-22.275501 4.11456,-33.575982 4.11456,-33.575982 0,0 -10.62404,9.545962 -22.02362,25.443116 7.77788,-18.033102 10.55937,-32.20438 10.55937,-32.20438 0,0 -12.92321,-0.262957 -26.40901,20.428384 -1.93451,-6.343584 -5.24826,-12.423991 -10.4415,-17.998297 -1.69681,1.887632 -3.1286,3.968546 -4.33873,6.195873 -1.8343,-8.44667 -5.18746,-16.31718 -10.78306,-22.725849 z m 23.29796,78.354591 c -0.001,0.0047 -0.002,0.0092 -0.004,0.01396 -0.005,0.0066 -0.01,0.01289 -0.0149,0.01944 0.004,-0.0076 0.006,-0.0153 0.01,-0.02293 0.004,-0.0034 0.006,-0.0071 0.008,-0.01049 z m -46.59592,0.001 c 0.004,0.0035 0.006,0.007 0.01,0.01049 0.004,0.0077 0.006,0.01568 0.01,0.02343 -0.005,-0.0066 -0.01,-0.01328 -0.0149,-0.01996 -0.001,-0.0047 -0.002,-0.0092 -0.004,-0.01395 z m 15.49894,0.0653 c 0.47616,1.827842 0.94331,3.705383 1.4023,5.631975 -0.0413,0.181053 -0.0819,0.359572 -0.12268,0.538968 -0.43026,-1.753969 -0.88389,-3.691918 -1.34794,-5.743658 0.023,-0.138224 0.0454,-0.288203 0.0683,-0.427285 z m 15.59803,9.94e-4 c 0.0229,0.138902 0.0448,0.288754 0.0678,0.426788 -0.46403,2.051731 -0.91719,3.989717 -1.34746,5.743658 -0.0407,-0.179422 -0.0818,-0.357888 -0.12317,-0.538958 0.45896,-1.926474 0.92668,-3.803763 1.40278,-5.631488 z M 96.59174,102.86446 c 0.12925,0.0491 0.26739,0.10439 0.39592,0.15306 1.50763,1.43655 2.92384,2.80669 4.19585,4.06445 -0.1724,-0.0537 -0.34401,-0.10714 -0.51811,-0.16106 -1.40388,-1.36932 -2.76209,-2.72132 -4.07366,-4.05645 z m 61.98181,5e-4 c -1.31147,1.33504 -2.66941,2.68673 -4.07318,4.05595 -0.17409,0.054 -0.34573,0.10739 -0.5181,0.16106 1.27186,-1.25762 2.68744,-2.62757 4.19489,-4.06395 0.12866,-0.0488 0.26698,-0.10389 0.39639,-0.15306 z m -41.23301,1.09438 c 0.39099,0.45906 0.82565,0.96543 1.20844,1.41348 -0.008,0.0283 -0.0196,0.0536 -0.0289,0.0818 -0.4099,-0.38962 -0.81832,-0.78034 -1.22048,-1.17517 0.0138,-0.10738 0.0263,-0.21046 0.0408,-0.32009 z m 20.48469,0 c 0.0147,0.10963 0.027,0.21273 0.0409,0.32009 -0.40224,0.3949 -0.81097,0.78545 -1.22093,1.17517 -0.01,-0.0282 -0.0196,-0.0535 -0.0289,-0.0818 0.38285,-0.44814 0.81784,-0.95436 1.20891,-1.41349 z m -27.48706,4.12975 c 0.10037,0.0418 0.19397,0.0827 0.29201,0.12412 0.13365,0.55315 0.26044,1.10987 0.3858,1.66725 -0.0285,-0.006 -0.055,-0.009 -0.0837,-0.015 -0.18851,-0.56281 -0.40036,-1.20086 -0.5941,-1.77645 z m 34.48993,0 c -0.19372,0.57549 -0.40611,1.21323 -0.5946,1.77595 -0.0286,0.006 -0.0552,0.01 -0.0837,0.0155 0.12538,-0.55738 0.25216,-1.11409 0.38581,-1.66725 0.0981,-0.0415 0.19198,-0.0823 0.2925,-0.12412 z m -26.05927,6.65756 8.81406,0.0598 8.81359,-0.0598 4.35603,7.82675 4.45755,7.76739 -4.45755,7.7669 -4.35653,7.82724 -8.81309,-0.0598 -8.81358,0.0598 -4.35652,-7.82724 -4.45754,-7.7669 4.45754,-7.76739 z m 47.60421,1.91606 c -0.10648,0.0899 -0.22235,0.18475 -0.32807,0.27421 -1.97174,0.61543 -3.84146,1.18283 -5.54379,1.67924 0.13186,-0.12581 0.26294,-0.25126 0.39591,-0.37844 1.86293,-0.55727 3.68819,-1.08231 5.47595,-1.57501 z m -77.579837,5e-4 c 1.787333,0.49258 3.612554,1.01739 5.474997,1.57451 0.13298,0.1272 0.26403,0.2526 0.39592,0.37844 -1.702055,-0.49632 -3.571466,-1.06392 -5.54283,-1.67924 -0.105633,-0.0894 -0.221724,-0.18388 -0.328087,-0.27371 z m 13.105157,9.18536 c 0.0193,0.0223 0.0356,0.044 0.0548,0.0663 -0.5352,0.16776 -1.07055,0.33378 -1.60628,0.4921 -0.0841,-0.0661 -0.16543,-0.12858 -0.25111,-0.19643 0.58462,-0.11638 1.23134,-0.24739 1.80253,-0.36199 z m 51.36905,0 c 0.57119,0.11463 1.21793,0.24562 1.80253,0.36198 -0.0856,0.0678 -0.16696,0.13044 -0.25109,0.19643 -0.53575,-0.15832 -1.07108,-0.32433 -1.60629,-0.4921 0.0192,-0.0224 0.0355,-0.044 0.0548,-0.0663 z m -72.266009,4.48873 c 0.0084,0.001 0.01669,0.003 0.02502,0.004 -0.0084,0.001 -0.01671,0.002 -0.02502,0.002 -0.0046,-0.001 -0.0093,-0.001 -0.01395,-0.002 0.0048,-10e-4 0.0092,-0.002 0.01395,-0.004 z m 93.162499,0 c 0.005,0.001 0.008,0.003 0.014,0.004 -0.005,0.001 -0.008,0.001 -0.014,0.002 -0.008,-0.001 -0.0166,-0.002 -0.025,-0.002 0.008,-10e-4 0.0166,-0.002 0.025,-0.004 z m -73.81745,3.93681 c 0.53592,0.15836 1.0714,0.32427 1.60676,0.4921 -0.0192,0.0222 -0.0351,0.0441 -0.0543,0.0663 -0.57136,-0.11463 -1.21825,-0.24558 -1.80304,-0.36197 0.0855,-0.0678 0.16656,-0.1305 0.25063,-0.19643 z m 54.4724,4.9e-4 c 0.084,0.066 0.1655,0.12815 0.25109,0.19594 -0.58477,0.11638 -1.23165,0.24734 -1.80301,0.36197 -0.0193,-0.0222 -0.0352,-0.0441 -0.0544,-0.0663 0.53518,-0.16776 1.07057,-0.33328 1.60629,-0.49161 z m -60.15473,7.79083 c -0.13172,0.12566 -0.26263,0.25091 -0.39544,0.37793 -1.862444,0.55713 -3.687662,1.08193 -5.474995,1.57452 0.106271,-0.0898 0.222056,-0.1844 0.327605,-0.27372 1.971329,-0.6153 3.840802,-1.18242 5.54283,-1.67873 z m 65.83706,0 c 1.70218,0.49636 3.57177,1.06337 5.5433,1.67873 0.10556,0.0893 0.22134,0.18397 0.3276,0.27372 -1.78758,-0.49266 -3.61274,-1.0173 -5.47547,-1.57452 -0.1328,-0.12702 -0.26373,-0.25227 -0.39543,-0.37793 z m -49.4852,8.73565 c -0.12534,0.55723 -0.25219,1.11377 -0.3858,1.66676 -0.098,0.0415 -0.19165,0.0823 -0.29201,0.12412 0.19369,-0.57542 0.40564,-1.21326 0.5941,-1.77595 0.0286,-0.006 0.0552,-0.009 0.0837,-0.015 z m 33.13382,0 c 0.0285,0.006 0.055,0.01 0.0837,0.0155 0.18844,0.5626 0.40092,1.20012 0.5946,1.77545 -0.10047,-0.042 -0.19437,-0.0822 -0.2925,-0.12362 -0.13366,-0.55315 -0.26044,-1.10986 -0.3858,-1.66726 z m -42.96678,2.79854 c -1.27191,1.25765 -2.68787,2.62803 -4.19536,4.06445 -0.12853,0.0487 -0.26667,0.10389 -0.39592,0.15306 1.31136,-1.33493 2.66906,-2.68737 4.07271,-4.05647 0.17423,-0.0541 0.34603,-0.10726 0.51857,-0.16104 z m 52.79973,5e-4 c 0.17249,0.0537 0.34439,0.10652 0.5186,0.16054 1.40353,1.369 2.76094,2.72114 4.0722,4.05597 -0.12926,-0.0492 -0.26739,-0.1044 -0.39592,-0.15306 -1.50729,-1.43624 -2.9231,-2.80594 -4.19488,-4.06345 z m -17.33709,1.62638 c 0.40988,0.38962 0.81832,0.78033 1.22046,1.17516 -0.0138,0.10739 -0.0263,0.21042 -0.0408,0.32009 -0.391,-0.45903 -0.82566,-0.96545 -1.20844,-1.41348 0.008,-0.0284 0.0196,-0.0536 0.0289,-0.0818 z m -18.12554,4.9e-4 c 0.01,0.0282 0.0196,0.0535 0.0289,0.0818 -0.3827,0.44795 -0.81753,0.95404 -1.20843,1.41299 -0.0147,-0.10964 -0.027,-0.21271 -0.0408,-0.32009 0.40208,-0.39476 0.81066,-0.78512 1.22047,-1.17467 z m 15.58216,10.09678 c 0.43029,1.75405 0.88386,3.69179 1.34793,5.74367 -0.0229,0.13807 -0.0454,0.28785 -0.0683,0.42677 -0.47615,-1.82784 -0.9438,-3.70487 -1.40279,-5.63147 0.0413,-0.18108 0.0824,-0.35954 0.12317,-0.53897 z m -13.03879,5e-4 c 0.0407,0.17959 0.0818,0.35822 0.12318,0.53947 -0.459,1.92662 -0.92663,3.80362 -1.40279,5.63148 -0.023,-0.13911 -0.0454,-0.28905 -0.0682,-0.42728 0.46406,-2.05185 0.91764,-3.98962 1.34793,-5.74367 z m -16.75932,6.20285 c -0.004,0.007 -0.006,0.0157 -0.01,0.0235 -0.004,0.004 -0.006,0.008 -0.01,0.01 10e-4,-0.005 0.002,-0.009 0.004,-0.014 0.005,-0.006 0.01,-0.0132 0.0149,-0.02 z m 46.55792,0.001 c 0.005,0.006 0.01,0.0129 0.0149,0.0195 0.001,0.005 0.002,0.009 0.004,0.014 -0.004,-0.004 -0.006,-0.008 -0.008,-0.01 -0.004,-0.007 -0.006,-0.0154 -0.01,-0.023 z" />
    <path
       id="path2231"
       style="display:inline;fill:#839937;fill-opacity:1;stroke:#8e6861;stroke-width:1.08527;stroke-dasharray:none;stroke-opacity:1"
       d="m 128.11602,47.048718 -18.834,18.851046 -22.599133,-5.625497 -0.521415,-0.8816 -6.505029,22.601205 -25.403101,6.323645 7.298263,25.355553 -16.287895,16.30185 h -1.042313 l 16.788639,16.80311 -7.095174,24.64811 26.132255,6.50503 6.311759,21.92786 -0.521415,0.88108 23.293149,-5.79809 18.30845,18.32498 18.83347,-18.85053 22.60017,5.62549 0.5209,0.88109 6.50503,-22.60121 25.4031,-6.32364 -7.29826,-25.35556 16.28789,-16.30185 h 1.04232 l -16.78864,-16.80311 7.09517,-24.648105 -26.13225,-6.50503 -6.31176,-21.927343 0.52141,-0.8816 -23.29315,5.798095 z m 0.33073,10.189559 15.89308,15.907039 20.21996,-5.032768 -0.45269,0.765328 5.47874,19.033981 22.6844,5.646683 -6.1588,21.39611 14.57327,14.58619 h -0.90485 l -14.13867,14.15107 6.33501,22.01003 -22.05085,5.48959 -5.6472,19.61896 -0.45217,-0.76482 -19.61792,-4.88342 -16.34887,16.36334 -15.89309,-15.90704 -20.219439,5.03329 0.452169,-0.76481 -5.478736,-19.03502 -22.684403,-5.64668 6.158797,-21.39611 -14.573271,-14.58567 h 0.904855 l 14.138672,-14.15159 -6.335014,-22.01003 22.051367,-5.489071 5.646684,-19.619474 0.452685,0.765845 19.617404,4.882906 z" />
    <path
       id="path2231-6"
       style="display:inline;fill:#908534;fill-opacity:1;stroke:#8e6861;stroke-width:1.21192;stroke-dasharray:none;stroke-opacity:1"
       d="m 106.0821,40.714877 -15.612602,25.334036 -26.166557,-0.03045 -0.801565,-0.81064 -1.158173,26.084487 -26.085004,13.59078 14.644682,25.36874 -13.502194,21.90837 -1.138572,0.27812 22.760893,13.62273 -1.264166,28.44713 30.257416,0.0353 12.665072,21.93925 -0.33771,1.08832 23.91849,-12.4616 24.82155,14.85676 15.61216,-25.33335 26.16768,0.0302 0.80088,0.81023 1.15817,-26.08449 26.085,-13.59078 -14.64468,-25.36875 13.50219,-21.90836 1.13858,-0.27811 -22.7609,-13.622747 1.26416,-28.447127 -30.25741,-0.03527 -12.66493,-21.938677 0.33757,-1.088893 -23.91849,12.461613 z m 3.0427,10.889191 21.54682,12.896334 20.76289,-10.817105 -0.29309,0.945293 10.99357,19.043867 26.26528,0.03053 -1.0971,24.693833 19.75754,11.82551 -0.98841,0.24143 -11.72048,19.01782 12.71209,22.02155 -22.64264,11.79778 -1.00593,22.64276 -0.69519,-0.70331 -22.71474,-0.0265 -13.55263,21.99088 -21.54682,-12.89633 -20.7622,10.81753 0.29267,-0.9446 -10.993851,-19.04499 -26.265274,-0.0305 1.097092,-24.69382 -19.757403,-11.82494 0.98842,-0.24144 11.720338,-19.01838 -12.712091,-22.02155 22.643357,-11.797365 1.005215,-22.643174 0.69602,0.704276 22.714052,0.02604 z" />
    <path
       id="path2334"
       style="display:inline;fill:#808050;fill-opacity:1;stroke:#b96567;stroke-width:1.10067;stroke-dasharray:none;stroke-opacity:1"
       d="m 127.58306,68.519107 c -3.50837,2.578938 -7.0291,5.11093 -10.11186,9.314045 -2.69909,-2.336958 -6.13016,-4.83997 -10.68785,-7.598211 -1.71048,3.228424 -3.62925,6.436989 -4.99317,9.867663 -1.06829,-0.106462 -2.184621,-0.193878 -3.360765,-0.257849 -0.53259,1.050394 -1.01534,2.061336 -1.457228,3.039588 -3.653069,-0.534175 -7.391197,-0.476463 -11.042393,-0.609359 0.109861,5.326036 0.561491,9.548859 1.23578,13.054755 -5.181159,0.56824 -9.133995,2.351359 -13.121493,4.100183 0.479229,4.327738 0.911481,8.642648 3.010011,13.413848 -3.373345,1.16899 -7.256589,2.88904 -11.924011,5.45692 1.940698,3.09559 3.760059,6.36173 6.049219,9.25831 -0.626321,0.8719 -1.260462,1.79518 -1.903913,2.78173 0.643397,0.98647 1.277644,1.90952 1.903913,2.78136 -2.28916,2.89658 -4.108521,6.16309 -6.049219,9.25868 4.667422,2.56789 8.550666,4.28755 11.924011,5.45655 -2.098623,4.77129 -2.530774,9.08604 -3.010011,13.41385 3.987496,1.74882 7.940338,3.53194 13.121493,4.10018 -0.674308,3.50593 -1.125918,7.72901 -1.23578,13.05513 3.651185,-0.13289 7.389334,-0.0752 11.042393,-0.60935 0.441888,0.97825 0.924638,1.98881 1.457228,3.03921 1.176006,-0.064 2.292215,-0.15141 3.360385,-0.25785 1.36393,3.4308 3.28302,6.63951 4.99355,9.86804 4.55763,-2.75821 7.98878,-5.26128 10.68785,-7.59821 3.08271,4.20297 6.60355,6.73478 10.11186,9.31366 3.50827,-2.57885 7.0288,-5.11077 10.11149,-9.31366 2.69907,2.33693 6.13021,4.84 10.68785,7.59821 1.71052,-3.22851 3.62962,-6.43727 4.99355,-9.86804 1.06817,0.10644 2.18475,0.19388 3.36076,0.25785 0.53261,-1.05044 1.01533,-2.06093 1.45723,-3.03921 3.65302,0.53414 7.39126,0.47646 11.04239,0.60935 -0.10986,-5.32612 -0.56185,-9.5492 -1.23615,-13.05513 5.18119,-0.56823 9.13397,-2.35135 13.12149,-4.10018 -0.47923,-4.32773 -0.9115,-8.64229 -3.01001,-13.41347 3.37345,-1.169 7.25638,-2.88893 11.92401,-5.45693 -1.9407,-3.09559 -3.75969,-6.3621 -6.04884,-9.25868 0.62626,-0.87183 1.26014,-1.7949 1.90353,-2.78136 -0.64345,-0.98654 -1.27722,-1.90984 -1.90353,-2.78173 2.28915,-2.89658 4.10814,-6.16272 6.04884,-9.25831 -4.66758,-2.56797 -8.55059,-4.28793 -11.92401,-5.45692 2.09854,-4.77121 2.53078,-9.0861 3.01001,-13.413848 -3.98753,-1.748834 -7.9403,-3.531953 -13.12149,-4.100183 0.67429,-3.505896 1.12629,-7.728719 1.23615,-13.054755 -3.65127,0.132899 -7.38963,0.07515 -11.04277,0.609359 -0.44189,-0.978247 -0.92426,-1.989201 -1.45685,-3.039588 -1.176,0.06396 -2.29259,0.151404 -3.36076,0.257849 -1.36392,-3.430693 -3.28307,-6.639224 -4.99355,-9.867663 -4.55758,2.758177 -7.98879,5.260919 -10.68785,7.597831 -3.08269,-4.202885 -6.60322,-6.734806 -10.11149,-9.313665 z" />
    <path
       id="path1672"
       style="display:inline;fill:#3e541a;fill-opacity:1;stroke:#1a3e2f;stroke-width:1.5;stroke-dasharray:none;stroke-opacity:1"
       d="m 127.67917,77.34676 c -0.68389,2.989369 -0.18854,6.348911 -4.90252,8.073034 -0.40802,0.07793 -0.74117,0.142263 -1.13149,0.216121 -1.5409,0.110843 -3.13222,0.454211 -4.89513,0.966894 -2.68423,0.585513 -4.87018,1.229727 -6.76022,2.262972 -0.14808,0.05169 -0.2672,0.09301 -0.41789,0.145458 -4.94438,0.864167 -6.19502,-2.292976 -8.28177,-4.539858 0.90223,2.930858 3.01089,5.592601 -0.20959,9.443036 -0.31431,0.27145 -0.57064,0.493646 -0.87166,0.752729 -1.278965,0.866465 -2.485503,1.95945 -3.755824,3.284876 -2.032021,1.849443 -3.603033,3.500638 -4.723365,5.340648 -0.102482,0.11891 -0.185024,0.21439 -0.289395,0.33527 -3.849927,3.22089 -6.511259,1.11193 -9.441731,0.2096 2.246586,2.08702 5.403477,3.33782 4.539424,8.28284 -0.136446,0.39213 -0.247408,0.71256 -0.378539,1.08735 -0.674843,1.39067 -1.173437,2.94147 -1.611128,4.72575 -0.834838,2.61706 -1.369757,4.83196 -1.420011,6.98525 -0.02926,0.15401 -0.05293,0.27778 -0.08284,0.43443 -1.723895,4.7146 -5.083188,4.2192 -8.072164,4.90318 2.988976,0.68397 6.348269,0.18835 8.072164,4.90296 0.07795,0.40823 0.142245,0.74161 0.216122,1.13213 0.110852,1.54084 0.453964,3.13211 0.966458,4.89492 0.585507,2.68499 1.229673,4.87146 2.262972,6.76195 0.05165,0.14801 0.09305,0.26705 0.145459,0.41767 0.864053,4.94503 -2.292838,6.19561 -4.539424,8.28264 2.930472,-0.90234 5.591804,-3.0113 9.441731,0.2096 0.271297,0.31421 0.493353,0.5705 0.752295,0.87144 0.866363,1.27927 1.95931,2.48588 3.284657,3.75648 1.849704,2.03285 3.500963,3.60453 5.341289,4.7251 0.11854,0.10218 0.21369,0.18447 0.33418,0.28852 3.22049,3.85043 1.11183,6.51218 0.2096,9.44304 2.08676,-2.24689 3.33718,-5.40403 8.28155,-4.53986 0.39252,0.13661 0.7133,0.24769 1.08844,0.37898 1.3895,0.67432 2.93875,1.17257 4.72119,1.61003 2.6177,0.83539 4.83296,1.37051 6.98656,1.42089 0.15423,0.0293 0.27818,0.0531 0.43506,0.0831 4.71398,1.72411 4.21843,5.08366 4.90231,8.07303 0.68389,-2.98937 0.18855,-6.34892 4.90252,-8.07303 0.40802,-0.0779 0.74117,-0.14228 1.13149,-0.21613 1.5409,-0.11084 3.13222,-0.45421 4.89513,-0.96689 2.68453,-0.58559 4.87069,-1.22974 6.76087,-2.2632 0.14786,-0.0516 0.26678,-0.0929 0.41724,-0.14523 4.94438,-0.86417 6.19502,2.29319 8.28177,4.54008 -0.90223,-2.93087 -3.01088,-5.59283 0.20959,-9.44326 0.31431,-0.27145 0.57064,-0.49365 0.87167,-0.75273 1.27892,-0.86644 2.48531,-1.9595 3.7556,-3.28488 2.03208,-1.8495 3.60322,-3.50059 4.72358,-5.34063 0.10248,-0.11892 0.18502,-0.21439 0.2894,-0.33528 3.84992,-3.2209 6.51126,-1.11194 9.44173,-0.20959 -2.24659,-2.08703 -5.40348,-3.33761 -4.53943,-8.28264 0.13652,-0.39234 0.24756,-0.71301 0.37876,-1.088 0.67463,-1.39034 1.1731,-2.94071 1.61069,-4.72445 0.83497,-2.61736 1.36997,-4.83264 1.42023,-6.98612 0.0293,-0.15401 0.053,-0.27777 0.0828,-0.43442 1.72389,-4.7146 5.08319,-4.2192 8.07217,-4.90318 -2.98898,-0.68397 -6.34828,-0.18835 -8.07217,-4.90296 -0.0778,-0.40784 -0.14209,-0.74088 -0.21591,-1.13104 -0.11077,-1.54119 -0.45406,-3.13279 -0.96667,-4.89601 -0.58551,-2.68499 -1.22967,-4.87146 -2.26297,-6.76195 -0.0517,-0.14801 -0.0931,-0.26705 -0.14546,-0.41767 -0.86405,-4.94503 2.29284,-6.19562 4.53942,-8.28264 -2.93047,0.90234 -5.5918,3.0113 -9.44173,-0.2096 -0.27129,-0.31421 -0.49335,-0.5705 -0.7523,-0.87144 -0.86633,-1.27924 -1.95935,-2.48569 -3.28465,-3.75626 -1.84932,-2.032446 -3.50014,-3.603907 -5.33998,-4.724453 -0.11892,-0.102504 -0.21441,-0.185001 -0.33528,-0.289394 -3.22048,-3.850435 -1.11182,-6.512178 -0.2096,-9.443036 -2.08675,2.246882 -3.33738,5.404025 -8.28176,4.539858 -0.39252,-0.136615 -0.71329,-0.247685 -1.08843,-0.378974 -1.38934,-0.67424 -2.93837,-1.172389 -4.72054,-1.609823 -2.61797,-0.835495 -4.83344,-1.370741 -6.98721,-1.421098 -0.15424,-0.02931 -0.27819,-0.0531 -0.43507,-0.08306 -4.71398,-1.724123 -4.21842,-5.083665 -4.90231,-8.073034 z m 5.0182,34.10199 c -0.16317,3.63917 -0.68435,7.87371 -1.63266,12.81792 3.82551,-3.30938 7.24574,-5.88665 10.32688,-7.85104 -1.96065,3.07001 -4.52911,6.47647 -7.82213,10.28404 4.96737,-0.953 9.21801,-1.47437 12.86837,-1.63482 -3.23274,1.67823 -7.16007,3.34378 -11.91539,4.99449 4.77846,1.65875 8.72034,3.33255 11.96192,5.01907 -3.63873,-0.16318 -7.87274,-0.68463 -12.81641,-1.63309 3.30898,3.82602 5.88605,7.24686 7.85018,10.3284 -3.06962,-1.96091 -6.47583,-4.52972 -10.28295,-7.82322 0.95288,4.96807 1.4744,9.21926 1.63482,12.87011 -1.67802,-3.23318 -3.34355,-7.16114 -4.99406,-11.91712 -1.6585,4.77899 -3.33193,8.72147 -5.0182,11.96344 0.16317,-3.63917 0.68435,-7.87371 1.63266,-12.81793 -3.82558,3.30946 -7.24591,5.88686 -10.32709,7.85126 1.96066,-3.07007 4.52923,-6.47658 7.82234,-10.28425 -4.96755,0.95302 -9.21814,1.47461 -12.86859,1.63504 3.2328,-1.67828 7.16016,-3.34396 11.91561,-4.99471 -4.77845,-1.65875 -8.72035,-3.33256 -11.96192,-5.01907 3.63873,0.16317 7.87274,0.68463 12.81641,1.63308 -3.30898,-3.82601 -5.88605,-7.24685 -7.85018,-10.32839 3.06963,1.9609 6.47584,4.52972 10.28296,7.82321 -0.9529,-4.96817 -1.47442,-9.21942 -1.63483,-12.87033 1.67806,3.23322 3.34352,7.16128 4.99406,11.91735 1.6585,-4.77899 3.33193,-8.72147 5.0182,-11.96344 z" />
    <path
       id="path2231-6-7"
       style="display:inline;fill:#908534;fill-opacity:1;stroke:#8e6861;stroke-width:0.515537;stroke-dasharray:none;stroke-opacity:1"
       d="m 110.97178,102.81077 c -13.252838,-0.54978 -11.394825,-2.07726 -11.963805,10.7375 -12.321317,5.38157 -11.166643,5.65778 -4.866259,16.57183 l -5.743296,9.31896 -0.484303,0.11829 9.68158,5.79458 c -1.621295,13.35974 -0.157258,12.10072 12.332573,12.11528 6.06485,11.71186 4.01016,10.43762 15.41755,4.49434 10.91361,7.71147 10.65994,6.15423 17.1989,-4.45632 13.25315,0.54958 11.395,2.07701 11.96399,-10.73787 12.32133,-5.38156 11.16664,-5.65778 4.86626,-16.57183 7.41878,-11.01128 7.61884,-8.60457 -3.45398,-15.23183 1.62129,-13.35974 0.15725,-12.10072 -12.33258,-12.11528 -6.06487,-11.711683 -4.0102,-10.437606 -15.41754,-4.494341 -10.91374,-7.71153 -10.66008,-6.153931 -17.19909,4.456691 z m 17.10039,-0.65867 c 10.09996,-5.83399 7.88296,-5.626622 13.38327,3.90143 11.63271,-0.70398 11.19437,-0.48578 10.70554,10.51668 10.25975,5.54551 8.79498,3.81632 2.99822,13.22223 6.52401,9.67969 5.46689,9.336 -4.22406,14.3854 0.0501,11.5645 0.61694,9.33374 -10.38554,9.32087 -5.38555,10.26783 -5.58497,9.46165 -14.92991,3.86847 -10.09979,5.83431 -7.883,5.62685 -13.38328,-3.90144 -11.63271,0.70398 -11.19435,0.48577 -10.70554,-10.51668 l -8.404017,-5.02985 0.420439,-0.10271 4.985364,-8.08966 c -6.524076,-9.67981 -5.466818,-9.33605 4.224364,-14.38522 -0.0504,-11.56466 -0.61718,-9.33349 10.3853,-9.32085 5.38547,-10.267985 5.58482,-9.461921 14.92985,-3.86867 z"
       sodipodi:nodetypes="cccccccccccccccccccccccccccccc" />
    <path
       id="path2231-6-7-5"
       style="display:inline;fill:#908534;fill-opacity:1;stroke:#8e6861;stroke-width:0.515537;stroke-dasharray:none;stroke-opacity:1"
       d="m 105.51321,106.9497 c -12.978468,2.73853 -11.554988,0.79969 -8.943202,13.35837 -10.611686,8.2564 -9.424562,8.23905 -0.625138,17.26022 l -3.265315,10.44826 -0.440119,0.23417 10.812324,3.22551 c 1.72655,13.34654 2.83451,11.7651 14.94147,8.69626 8.76811,9.85242 6.46246,9.12479 16.04985,0.54964 12.47939,4.77897 11.84918,3.33253 15.56673,-8.56375 12.97871,-2.7388 11.55509,-0.79997 8.94328,-13.35877 10.6117,-8.2564 9.42456,-8.23905 0.62514,-17.26022 4.47123,-12.50179 5.25916,-10.21893 -7.10688,-13.90794 -1.72656,-13.346544 -2.83453,-11.765102 -14.94148,-8.696258 -8.76808,-9.852248 -6.4625,-9.124764 -16.04984,-0.549646 -12.47953,-4.778995 -11.84925,-3.332206 -15.56682,8.564154 z m 16.40866,-4.8593 c 8.3474,-8.146507 6.25018,-7.398317 13.93217,0.47722 11.09899,-3.553579 10.72808,-3.233932 12.97019,7.54874 11.31112,2.84143 9.46485,1.5273 6.16918,12.07302 8.71145,7.7698 7.6022,7.69769 -0.5425,14.98293 2.9031,11.19429 2.90176,8.89264 -7.76344,11.59599 -2.68443,11.27947 -3.07667,10.54746 -13.51305,7.43402 -8.34715,8.14679 -6.25016,7.39856 -13.93219,-0.47722 -11.09899,3.55358 -10.72805,3.23392 -12.97018,-7.54874 l -9.38553,-2.79978 0.382077,-0.20332 2.834273,-9.06991 c -8.711539,-7.7699 -7.602143,-7.69775 0.54285,-14.98283 -2.903433,-11.19437 -2.901939,-8.89234 7.76321,-11.59591 2.68431,-11.279595 3.07646,-10.547681 13.51294,-7.43421 z"
       sodipodi:nodetypes="cccccccccccccccccccccccccccccc" />
  </g>
</svg>
